<svg width="55" height="52" viewBox="0 0 55 52" fill="none" xmlns="http://www.w3.org/2000/svg">
<g clip-path="url(#clip0_916_25)">
<path d="M47.7309 8.49474C41.7409 2.01474 32.2909 -1.07526 23.0809 0.414743C15.2009 1.60474 8.25092 6.20474 4.02092 13.0347C-0.0990806 19.6947 -1.10908 27.7047 1.25092 35.0147C3.39092 41.9247 8.64092 47.8147 15.3209 50.7847L15.8509 51.0247L16.6609 49.4247L16.1509 49.1347C11.1709 46.3247 7.38092 41.9047 5.48092 36.6847C2.29092 28.1847 4.74092 18.1047 11.4509 12.1747C16.6509 7.53474 23.1209 5.64474 29.6609 6.84474C36.5309 8.11474 42.4309 12.6147 45.8509 19.2047C50.1509 27.5247 48.8709 37.9047 42.5909 45.6547L42.2609 46.0547L43.3709 47.2947L43.8109 47.0247C48.5209 44.0747 52.1509 39.1547 53.7609 33.5447C56.3209 24.8647 53.9509 15.0247 47.7309 8.50474V8.49474Z" fill="#FE6E36"/>
</g>
<defs>
<clipPath id="clip0_916_25">
<rect width="54.77" height="50.97" fill="white" transform="translate(0 0.0449219)"/>
</clipPath>
</defs>
</svg>
